<?xml version="1.0" encoding="UTF-8"?>
<svg width="24px" height="24px" viewBox="0 0 24 24" version="1.1" xmlns="http://www.w3.org/2000/svg" xmlns:xlink="http://www.w3.org/1999/xlink">
    <!-- Generator: Sketch 62 (91390) - https://sketch.com -->
    <title>Icons/devices-white</title>
    <desc>Created with Sketch.</desc>
    <g id="Icons/devices" stroke="none" stroke-width="1" fill="none" fill-rule="evenodd">
        <g id="icons8-multiple_devices" transform="translate(0.000000, 3.000000)" fill="#FFFFFF">
            <path d="M4,0 C2.9069372,0 2,0.9069372 2,2 L2,12 C2,13.093063 2.9069372,14 4,14 L0,14 L0,16 L13,16 L13,14 L13,12 L4,12 L4,2 L20,2 L22,2 C22,0.9069372 21.093063,0 20,0 L4,0 Z M17,4 C15.897,4 15,4.897 15,6 L15,16 C15,17.103 15.897,18 17,18 L22,18 C23.103,18 24,17.103 24,16 L24,6 C24,4.897 23.103,4 22,4 L17,4 Z M17,6 L22,6 L22,15 L17,15 L17,6 Z" id="Shape"></path>
        </g>
    </g>
</svg>