<?xml version="1.0" encoding="UTF-8"?>
<svg width="24px" height="24px" viewBox="0 0 24 24" version="1.1" xmlns="http://www.w3.org/2000/svg" xmlns:xlink="http://www.w3.org/1999/xlink">
    <!-- Generator: Sketch 62 (91390) - https://sketch.com -->
    <title>Icons/cube-white</title>
    <desc>Created with Sketch.</desc>
    <g id="Icons/cube" stroke="none" stroke-width="1" fill="none" fill-rule="evenodd">
        <g id="icons8-sugar_cube" transform="translate(2.000000, 2.000000)" fill="#FFFFFF">
            <path d="M19.992,4.945 C19.986,4.838 19.962,4.737 19.924,4.641 C19.918,4.626 19.92,4.61 19.914,4.594 C19.906,4.576 19.891,4.566 19.882,4.549 C19.838,4.463 19.783,4.385 19.715,4.314 C19.698,4.297 19.686,4.276 19.668,4.261 C19.591,4.191 19.504,4.131 19.406,4.087 L10.406,0.087 C10.146,-0.028 9.853,-0.028 9.594,0.087 L0.594,4.087 C0.495,4.13 0.409,4.191 0.331,4.261 C0.315,4.276 0.303,4.295 0.287,4.311 C0.219,4.382 0.163,4.461 0.118,4.548 C0.109,4.565 0.094,4.576 0.086,4.594 C0.079,4.609 0.082,4.625 0.076,4.641 C0.038,4.737 0.014,4.838 0.008,4.945 C0.007,4.96 0.002,4.975 0.001,4.99 C0.001,4.993 0,4.997 0,5 L0,15 C0,15.395 0.232,15.753 0.594,15.914 L9.594,19.914 C9.596,19.915 9.599,19.915 9.602,19.916 C9.724,19.969 9.858,20 10,20 C10.142,20 10.276,19.969 10.399,19.915 C10.401,19.914 10.404,19.915 10.407,19.913 L19.407,15.913 C19.768,15.753 20,15.395 20,15 L20,5 C20,4.997 19.999,4.993 19.999,4.99 C19.998,4.975 19.993,4.96 19.992,4.945 Z M10,2.094 L16.538,5 L10,7.906 L3.462,5 L10,2.094 Z M2,6.539 L9,9.65 L9,17.462 L2,14.35 L2,6.539 Z" id="Shape"></path>
        </g>
    </g>
</svg>