<svg id="ee640ak7qii1" xmlns="http://www.w3.org/2000/svg" xmlns:xlink="http://www.w3.org/1999/xlink" viewBox="0 0 367 335" shape-rendering="geometricPrecision" text-rendering="geometricPrecision" width="367" height="335"><style><![CDATA[#ee640ak7qii5_to {animation: ee640ak7qii5_to__to 4000ms linear infinite normal forwards}@keyframes ee640ak7qii5_to__to { 0% {transform: translate(-34px,-54px)} 12.500000% {transform: translate(-31.500000px,248.347656px)} 20% {transform: translate(126px,248.347656px)} 25% {transform: translate(246px,241px)} 30% {transform: translate(291px,236px)} 35% {transform: translate(317.846328px,221px)} 37.500000% {transform: translate(295.345952px,206px)} 50% {transform: translate(106px,161px)} 62.500000% {transform: translate(166px,81px)} 70% {transform: translate(161px,41px)} 75% {transform: translate(121px,6px)} 100% {transform: translate(-32.750000px,-49px)} }]]></style><path id="ee640ak7qii2" d="M0,0L0,334.500000L17.500000,314L17.500000,31L0,0Z" fill="rgb(187,187,187)" stroke="none" stroke-width="1"/><path id="ee640ak7qii3" d="M17.500000,314L0,334.500000C237.167000,331,600.900000,303.200000,158.500000,220C229.167000,175.167000,296.400000,68.400000,0,0L17.500000,31L17.500000,314Z" fill="rgb(187,187,187)" stroke="none" stroke-width="1"/><path id="ee640ak7qii4" d="M193.500000,146C211,127.500000,200.900000,79.400000,20.500000,35L18.500000,299.500000C18.500000,299.500000,79.800000,308.500000,317,294.500000C358.500000,288.333000,385.900000,269.600000,163.500000,244C137.500000,246.667000,107.100000,230.800000,193.500000,146Z" transform="matrix(1 0 0 1 -0.99999999999945 5.00000000499997)" fill="rgb(255,255,255)" stroke="rgb(255,255,255)" stroke-width="1"/><g id="ee640ak7qii5_to" transform="translate(-34,-54)"><circle id="ee640ak7qii5" r="7.500000" transform="translate(41.500000,66.500000)" fill="rgb(238,90,36)" stroke="none" stroke-width="1"/></g></svg>