<?xml version="1.0" encoding="UTF-8"?>
<svg width="24px" height="24px" viewBox="0 0 24 24" version="1.1" xmlns="http://www.w3.org/2000/svg" xmlns:xlink="http://www.w3.org/1999/xlink">
    <!-- Generator: Sketch 62 (91390) - https://sketch.com -->
    <title>Icons/pinterest-white</title>
    <desc>Created with Sketch.</desc>
    <g id="Icons/pinterest" stroke="none" stroke-width="1" fill="none" fill-rule="evenodd">
        <g id="icons8-pinterest" transform="translate(2.000000, 2.000000)" fill="#FFFFFF">
            <path d="M10,0 C4.477,0 0,4.477 0,10 C0,14.237 2.636,17.855 6.356,19.312 C6.269,18.521 6.189,17.307 6.391,16.444 C6.573,15.664 7.563,11.473 7.563,11.473 C7.563,11.473 7.264,10.874 7.264,9.989 C7.264,8.598 8.07,7.561 9.073,7.561 C9.926,7.561 10.338,8.202 10.338,8.969 C10.338,9.827 9.792,11.11 9.51,12.298 C9.274,13.294 10.009,14.105 10.991,14.105 C12.768,14.105 14.134,12.231 14.134,9.526 C14.134,7.132 12.414,5.458 9.957,5.458 C7.112,5.458 5.442,7.592 5.442,9.798 C5.442,10.657 5.773,11.579 6.186,12.08 C6.268,12.179 6.279,12.266 6.255,12.367 C6.179,12.683 6.011,13.362 5.978,13.501 C5.935,13.684 5.833,13.723 5.644,13.634 C4.395,13.052 3.614,11.226 3.614,9.76 C3.614,6.606 5.906,3.708 10.222,3.708 C13.691,3.708 16.387,6.18 16.387,9.484 C16.387,12.931 14.214,15.704 11.198,15.704 C10.185,15.704 9.232,15.177 8.906,14.556 C8.906,14.556 8.404,16.465 8.283,16.934 C8.057,17.802 7.448,18.892 7.04,19.556 C7.975,19.843 8.969,20 10,20 C15.522,20 20,15.522 20,10 C20,4.478 15.523,0 10,0 Z" id="Path"></path>
        </g>
    </g>
</svg>